<svg width="35" height="35" viewBox="0 0 35 35" fill="none" xmlns="http://www.w3.org/2000/svg">
<path fill-rule="evenodd" clip-rule="evenodd" d="M23.3334 13.1253C23.3334 14.6724 22.7188 16.1562 21.6248 17.2501C20.5308 18.3441 19.0471 18.9587 17.5 18.9587C15.9529 18.9587 14.4692 18.3441 13.3752 17.2501C12.2813 16.1562 11.6667 14.6724 11.6667 13.1253C11.6667 11.5782 12.2813 10.0945 13.3752 9.00054C14.4692 7.90657 15.9529 7.29199 17.5 7.29199C19.0471 7.29199 20.5308 7.90657 21.6248 9.00054C22.7188 10.0945 23.3334 11.5782 23.3334 13.1253ZM20.4167 13.1253C20.4167 13.8989 20.1094 14.6407 19.5624 15.1877C19.0154 15.7347 18.2736 16.042 17.5 16.042C16.7265 16.042 15.9846 15.7347 15.4376 15.1877C14.8906 14.6407 14.5834 13.8989 14.5834 13.1253C14.5834 12.3518 14.8906 11.6099 15.4376 11.0629C15.9846 10.5159 16.7265 10.2087 17.5 10.2087C18.2736 10.2087 19.0154 10.5159 19.5624 11.0629C20.1094 11.6099 20.4167 12.3518 20.4167 13.1253Z" fill="black"/>
<path fill-rule="evenodd" clip-rule="evenodd" d="M17.5 1.4585C8.64064 1.4585 1.45834 8.64079 1.45834 17.5002C1.45834 26.3595 8.64064 33.5418 17.5 33.5418C26.3594 33.5418 33.5417 26.3595 33.5417 17.5002C33.5417 8.64079 26.3594 1.4585 17.5 1.4585ZM4.37501 17.5002C4.37501 20.5481 5.4148 23.3539 7.15751 25.5822C8.38139 23.975 9.96028 22.6725 11.7708 21.7764C13.5814 20.8804 15.5746 20.4151 17.5948 20.4168C19.5888 20.4149 21.557 20.8682 23.3493 21.7421C25.1416 22.6161 26.7108 23.8875 27.9373 25.4597C29.2009 23.8025 30.0516 21.8682 30.4192 19.8169C30.7868 17.7655 30.6606 15.6561 30.0511 13.6633C29.4417 11.6704 28.3664 9.85127 26.9143 8.35647C25.4621 6.86166 23.675 5.73412 21.7006 5.06715C19.7262 4.40018 17.6213 4.21295 15.5602 4.52096C13.4991 4.82896 11.541 5.62334 9.8478 6.83837C8.15464 8.05339 6.77515 9.65414 5.82347 11.5082C4.87179 13.3622 4.37527 15.4162 4.37501 17.5002ZM17.5 30.6252C14.487 30.6297 11.565 29.5932 9.22834 27.691C10.1689 26.3446 11.4207 25.2453 12.8774 24.4866C14.334 23.7279 15.9524 23.3323 17.5948 23.3335C19.2167 23.3322 20.8155 23.7179 22.2584 24.4585C23.7014 25.1991 24.9468 26.2733 25.8913 27.5918C23.5365 29.5558 20.5663 30.6295 17.5 30.6252Z" fill="black"/>
</svg>
