<svg width="28" height="28" viewBox="0 0 28 28" fill="none" xmlns="http://www.w3.org/2000/svg">
<g clip-path="url(#clip0_9_80)">
<path d="M16.8936 2.80882C16.7582 2.22417 16.4205 1.70617 15.9403 1.34623C15.4601 0.986276 14.8682 0.807515 14.269 0.841487C13.6698 0.875459 13.1019 1.11998 12.6654 1.5319C12.229 1.94382 11.9521 2.49667 11.8835 3.09288C11.815 3.6891 11.9593 4.29036 12.2909 4.79056C12.6225 5.29077 13.1201 5.65778 13.6959 5.82681C14.2718 5.99585 14.8888 5.95606 15.4382 5.71446C15.9875 5.47286 16.4339 5.04498 16.6985 4.50632C18.3093 4.87313 19.8068 5.62628 21.0616 6.70082C22.3165 7.77535 23.2911 9.13902 23.9015 10.6742L25.4546 10.0634C24.7357 8.24257 23.578 6.62753 22.0844 5.3619C20.5909 4.09627 18.8078 3.21925 16.8936 2.80882ZM14.4244 4.24207C14.3107 4.24572 14.1974 4.22648 14.0913 4.1855C13.9852 4.14451 13.8884 4.08261 13.8067 4.00347C13.725 3.92434 13.66 3.82959 13.6156 3.72485C13.5713 3.6201 13.5484 3.50751 13.5484 3.39376C13.5484 3.28001 13.5713 3.16741 13.6156 3.06267C13.66 2.95793 13.725 2.86318 13.8067 2.78404C13.8884 2.70491 13.9852 2.64301 14.0913 2.60202C14.1974 2.56103 14.3107 2.54179 14.4244 2.54545C14.6495 2.54545 14.8654 2.63487 15.0245 2.79404C15.1837 2.95321 15.2731 3.16909 15.2731 3.3942C15.2731 3.6193 15.1837 3.83518 15.0245 3.99435C14.8654 4.15352 14.6495 4.24207 14.4244 4.24207ZM10.6908 4.94732L10.0634 3.39507C8.24251 4.11402 6.62747 5.27172 5.36184 6.76526C4.0962 8.2588 3.21919 10.0419 2.80876 11.9561C2.22411 12.0916 1.70611 12.4292 1.34616 12.9094C0.986215 13.3896 0.807454 13.9815 0.841426 14.5807C0.875398 15.1799 1.11992 15.7478 1.53184 16.1843C1.94376 16.6207 2.49661 16.8976 3.09282 16.9662C3.68903 17.0347 4.2903 16.8905 4.7905 16.5588C5.29071 16.2272 5.65771 15.7296 5.82675 15.1538C5.99579 14.5779 5.956 13.9609 5.7144 13.4115C5.4728 12.8622 5.04492 12.4158 4.50626 12.1512C4.87458 10.5385 5.63019 9.03971 6.70775 7.78454C7.7853 6.52937 9.15238 5.55556 10.6908 4.94732ZM3.39326 15.2741C3.2818 15.2741 3.17143 15.2521 3.06846 15.2095C2.96548 15.1668 2.87192 15.1043 2.7931 15.0255C2.71429 14.9467 2.65177 14.8531 2.60912 14.7501C2.56646 14.6471 2.54451 14.5368 2.54451 14.4253C2.54451 14.3139 2.56646 14.2035 2.60912 14.1005C2.65177 13.9975 2.71429 13.904 2.7931 13.8252C2.87192 13.7464 2.96548 13.6838 3.06846 13.6412C3.17143 13.5985 3.2818 13.5766 3.39326 13.5766C3.61836 13.5766 3.83425 13.666 3.99342 13.8252C4.15259 13.9843 4.24201 14.2002 4.24201 14.4253C4.24201 14.6504 4.15259 14.8663 3.99342 15.0255C3.83425 15.1847 3.61836 15.2741 3.39326 15.2741ZM14.4244 22.9102C13.951 22.9117 13.4875 23.0452 13.0858 23.2956C12.6841 23.546 12.3601 23.9034 12.1503 24.3277C10.5392 23.9609 9.04152 23.2077 7.78648 22.133C6.53145 21.0583 5.55672 19.6944 4.94639 18.1589L3.39414 18.7863C4.11542 20.6103 5.277 22.2273 6.77523 23.4932C8.27345 24.759 10.0617 25.6343 11.9805 26.0409C12.0907 26.5081 12.3307 26.9346 12.6729 27.2712C13.015 27.6078 13.4453 27.8409 13.9141 27.9435C14.383 28.0462 14.8713 28.0142 15.3228 27.8514C15.7743 27.6885 16.1705 27.4013 16.4658 27.023C16.7612 26.6447 16.9436 26.1905 16.992 25.713C17.0404 25.2355 16.9528 24.754 16.7395 24.3241C16.5261 23.8942 16.1955 23.5334 15.7859 23.2832C15.3763 23.033 14.9043 22.9037 14.4244 22.9102ZM14.4244 26.3043C14.1993 26.3043 13.9834 26.2149 13.8242 26.0557C13.6651 25.8966 13.5756 25.6807 13.5756 25.4556C13.5756 25.2305 13.6651 25.0146 13.8242 24.8554C13.9834 24.6962 14.1993 24.6068 14.4244 24.6068C14.6495 24.6068 14.8654 24.6962 15.0245 24.8554C15.1837 25.0146 15.2731 25.2305 15.2731 25.4556C15.2731 25.6807 15.1837 25.8966 15.0245 26.0557C14.8654 26.2149 14.6495 26.3043 14.4244 26.3043ZM28 14.4244C28.0016 13.9701 27.8815 13.5237 27.6524 13.1314C27.4232 12.7391 27.0933 12.4153 26.6968 12.1935C26.3003 11.9717 25.8516 11.8601 25.3974 11.8701C24.9432 11.8802 24.5 12.0116 24.1137 12.2507C23.7274 12.4898 23.4121 12.8279 23.2005 13.2299C22.9889 13.632 22.8888 14.0833 22.9104 14.5371C22.9321 14.9909 23.0747 15.4306 23.3236 15.8107C23.5725 16.1908 23.9186 16.4973 24.3259 16.6986C23.959 18.3095 23.2057 19.807 22.131 21.0619C21.0563 22.3167 19.6925 23.2913 18.1571 23.9016L18.7854 25.4547C20.6093 24.7334 22.2264 23.5718 23.4922 22.0736C24.7581 20.5754 25.6334 18.7871 26.04 16.8683C26.5924 16.7377 27.0852 16.4263 27.4403 15.9835C27.7954 15.5407 27.9924 14.992 28 14.4244ZM25.4538 15.2732C25.2287 15.2732 25.0128 15.1838 24.8536 15.0246C24.6944 14.8654 24.605 14.6495 24.605 14.4244C24.605 14.1993 24.6944 13.9835 24.8536 13.8243C25.0128 13.6651 25.2287 13.5757 25.4538 13.5757C25.6789 13.5757 25.8947 13.6651 26.0539 13.8243C26.2131 13.9835 26.3025 14.1993 26.3025 14.4244C26.3025 14.6495 26.2131 14.8654 26.0539 15.0246C25.8947 15.1838 25.6789 15.2732 25.4538 15.2732Z" fill="black"/>
<path d="M16.7913 14.3064C17.274 13.835 17.6053 13.2305 17.7429 12.5699C17.8804 11.9093 17.818 11.2227 17.5635 10.5978C17.309 9.97293 16.874 9.43806 16.3141 9.06153C15.7542 8.68499 15.0948 8.48389 14.42 8.48389C13.7453 8.48389 13.0859 8.68499 12.5259 9.06153C11.966 9.43806 11.5311 9.97293 11.2766 10.5978C11.0221 11.2227 10.9596 11.9093 11.0972 12.5699C11.2347 13.2305 11.566 13.835 12.0488 14.3064C11.4743 14.6948 11.0037 15.218 10.6781 15.8302C10.3526 16.4425 10.1821 17.1253 10.1815 17.8187V19.5153H18.6664V17.8178C18.6649 17.1237 18.4932 16.4405 18.1663 15.8281C17.8394 15.2158 17.3672 14.6939 16.7913 14.3064ZM12.7269 11.8783C12.7269 11.6554 12.7708 11.4347 12.8561 11.2287C12.9414 11.0228 13.0665 10.8356 13.2241 10.678C13.3817 10.5204 13.5688 10.3953 13.7748 10.31C13.9807 10.2247 14.2015 10.1808 14.4244 10.1808C14.6473 10.1808 14.868 10.2247 15.074 10.31C15.2799 10.3953 15.4671 10.5204 15.6247 10.678C15.7823 10.8356 15.9074 11.0228 15.9927 11.2287C16.078 11.4347 16.1219 11.6554 16.1219 11.8783C16.1219 12.3285 15.9431 12.7603 15.6247 13.0786C15.3064 13.397 14.8746 13.5758 14.4244 13.5758C13.9742 13.5758 13.5424 13.397 13.2241 13.0786C12.9057 12.7603 12.7269 12.3285 12.7269 11.8783ZM11.8781 17.8178C11.8719 17.4795 11.9331 17.1434 12.0582 16.829C12.1833 16.5146 12.3699 16.2284 12.6069 15.9869C12.8439 15.7455 13.1267 15.5537 13.4387 15.4227C13.7506 15.2918 14.0856 15.2244 14.424 15.2244C14.7623 15.2244 15.0973 15.2918 15.4093 15.4227C15.7212 15.5537 16.004 15.7455 16.241 15.9869C16.4781 16.2284 16.6646 16.5146 16.7897 16.829C16.9148 17.1434 16.976 17.4795 16.9698 17.8178H11.8781Z" fill="black"/>
</g>
<defs>
<clipPath id="clip0_9_80">
<rect width="28" height="28" fill="white"/>
</clipPath>
</defs>
</svg>
