<svg width="53" height="51" viewBox="0 0 53 51" fill="none" xmlns="http://www.w3.org/2000/svg">
<rect width="53" height="51" rx="10" fill="black"/>
<path d="M36 35L30 29M18 24C18 24.9193 18.1811 25.8295 18.5328 26.6788C18.8846 27.5281 19.4002 28.2997 20.0503 28.9497C20.7003 29.5998 21.4719 30.1154 22.3212 30.4672C23.1705 30.8189 24.0807 31 25 31C25.9193 31 26.8295 30.8189 27.6788 30.4672C28.5281 30.1154 29.2997 29.5998 29.9497 28.9497C30.5998 28.2997 31.1154 27.5281 31.4672 26.6788C31.8189 25.8295 32 24.9193 32 24C32 23.0807 31.8189 22.1705 31.4672 21.3212C31.1154 20.4719 30.5998 19.7003 29.9497 19.0503C29.2997 18.4002 28.5281 17.8846 27.6788 17.5328C26.8295 17.1811 25.9193 17 25 17C24.0807 17 23.1705 17.1811 22.3212 17.5328C21.4719 17.8846 20.7003 18.4002 20.0503 19.0503C19.4002 19.7003 18.8846 20.4719 18.5328 21.3212C18.1811 22.1705 18 23.0807 18 24Z" stroke="white" stroke-width="2" stroke-linecap="round" stroke-linejoin="round"/>
</svg>
